<svg width="1002" height="391" viewBox="0 0 1002 391" fill="none" xmlns="http://www.w3.org/2000/svg">
<path d="M1001 36.7742L837.667 102.165M1001 36.7742V67.2704M1001 36.7742V80.4659M1001 36.7742L605.583 85.1577M837.667 102.165L1001 80.4659M837.667 102.165L857.25 327.662M837.667 102.165L552.25 293.647M1001 80.4659V67.2704M1001 80.4659V171.368M1001 67.2704L857.25 327.662M857.25 327.662L1001 171.368M857.25 327.662L1001 302.737V171.368M857.25 327.662L552.25 293.647M552.25 293.647L605.583 85.1577M552.25 293.647L260.583 241.451L605.583 85.1577M552.25 293.647L167.667 388.361M552.25 293.647L252.667 318.278M605.583 85.1577L281.833 47.6238M252.667 318.278L167.667 388.361M252.667 318.278L1 78.1201M252.667 318.278L281.833 47.6238M167.667 388.361L1 293.647V78.1201M1 78.1201L40.5833 47.6238H281.833" stroke="#F57F78" stroke-opacity="0.58" stroke-width="0.815833"/>
<ellipse cx="282.667" cy="47.917" rx="4.16667" ry="2.93233" fill="#F5BFBC"/>
<ellipse cx="605.166" cy="86.0373" rx="4.16667" ry="2.93233" fill="#F5BFBC"/>
<ellipse cx="552.667" cy="293.06" rx="4.16667" ry="2.93233" fill="#F5BFBC"/>
<ellipse cx="252.667" cy="317.105" rx="4.16667" ry="2.93233" fill="#F5BFBC"/>
<ellipse cx="167.666" cy="388.068" rx="4.16667" ry="2.93233" fill="#F5BFBC"/>
<ellipse cx="261" cy="241.451" rx="4.16667" ry="2.93233" fill="#F5BFBC"/>
<ellipse cx="41.8334" cy="47.9172" rx="4.16667" ry="2.93233" fill="#F5BFBC"/>
<ellipse cx="837.667" cy="102.459" rx="4.16667" ry="2.93233" fill="#F5BFBC"/>
<ellipse cx="856.833" cy="327.075" rx="4.16667" ry="2.93233" fill="#F5BFBC"/>
<path d="M480.167 14.782L472.667 87.5038M480.167 14.782L703.917 1M480.167 14.782L777.667 207.436M480.167 14.782L219.333 120.053M480.167 14.782L397.667 54.6617M472.667 87.5038L703.917 1M472.667 87.5038L451.833 313M472.667 87.5038L696 353.76L865.583 362.85M472.667 87.5038L219.333 367.542M472.667 87.5038L219.333 120.053M703.917 1L397.667 54.6617M703.917 1L998.5 115.654V160.226M703.917 1L777.667 207.436M397.667 54.6617L451.833 313M397.667 54.6617L219.333 120.053M397.667 54.6617L1 100.993M397.667 54.6617L777.667 207.436M777.667 207.436L451.833 313M777.667 207.436L860.441 353.76M777.667 207.436L998.5 160.226M451.833 313L219.333 367.542M219.333 367.542L1 100.993M219.333 367.542V120.053M865.583 362.85L998.5 331.181M865.583 362.85L860.441 353.76M998.5 331.181L860.441 353.76M998.5 331.181V160.226M219.333 120.053L1 100.993M1 100.993V343.497" stroke="#F57F78" stroke-opacity="0.13" stroke-width="0.815833"/>
<path d="M862.25 80.1729L906.417 198.346M862.25 80.1729L731.417 129.729M862.25 80.1729L736 86.624M862.25 80.1729L687.667 109.496M862.25 80.1729L1000.74 129.729M906.417 198.346L721 257.286M906.417 198.346L687.667 109.496M906.417 198.346L955.584 287.782M906.417 198.346L858.5 280.744M906.417 198.346L736 86.624M906.417 198.346L1000.74 177.573V129.729M731.417 129.729L736 86.624M731.417 129.729L584.75 147.91M731.417 129.729L858.5 280.744M731.417 129.729L596 277.812M731.417 129.729L721 257.286M736 86.624L687.667 109.496M736 86.624L584.75 147.91M687.667 109.496L721 257.286M687.667 109.496L596 277.812M687.667 109.496L584.75 147.91M687.667 109.496L451.834 137.353M584.75 147.91L721 257.286M584.75 147.91L596 277.812M584.75 147.91L451.834 137.353M584.75 147.91L420.584 257.286M721 257.286L596 277.812M721 257.286L858.5 280.744M721 257.286L955.584 287.782M858.5 280.744L955.584 287.782M955.584 287.782L1000.74 239.042M955.584 287.782L1000.74 277.339V239.042M596 277.812L420.584 257.286M596 277.812L451.834 137.353M420.584 257.286L451.834 137.353M420.584 257.286L266.417 117.12M420.584 257.286L253.917 228.256M420.584 257.286L253.917 271.654M420.584 257.286L200.167 311.827M451.834 137.353L266.417 117.12M451.834 137.353L253.917 228.256M266.417 117.12L253.917 228.256M266.417 117.12H127.667M253.917 228.256V271.654M253.917 228.256L22.2504 207.729M253.917 228.256L127.667 117.12M253.917 228.256L200.167 311.827M253.917 271.654L200.167 311.827M253.917 271.654L127.667 117.12M253.917 271.654L22.2504 207.729M200.167 311.827L22.2504 207.729M200.167 311.827L3.3972 317.262V247.902M22.2504 207.729L127.667 117.12M22.2504 207.729L1.83325 159.523M22.2504 207.729L3.3972 247.902M127.667 117.12L1.83374 140.943L1.83325 159.523M127.667 117.12L1.83325 159.523M1.83325 159.523L3.3972 247.902M1000.74 129.729V239.042" stroke="#F57F78" stroke-width="0.815833"/>
<path d="M269.333 118C269.333 119.134 268.027 120.053 266.417 120.053C264.806 120.053 263.5 119.134 263.5 118C263.5 116.867 264.806 115.948 266.417 115.948C268.027 115.948 269.333 116.867 269.333 118Z" fill="#F57F78"/>
<path d="M734.333 130.316C734.333 131.449 733.027 132.368 731.417 132.368C729.806 132.368 728.5 131.449 728.5 130.316C728.5 129.182 729.806 128.263 731.417 128.263C733.027 128.263 734.333 129.182 734.333 130.316Z" fill="#F57F78"/>
<path d="M691 111.549C691 112.682 689.694 113.601 688.083 113.601C686.473 113.601 685.167 112.682 685.167 111.549C685.167 110.415 686.473 109.496 688.083 109.496C689.694 109.496 691 110.415 691 111.549Z" fill="#F57F78"/>
<path d="M737.667 87.5038C737.667 88.6374 736.361 89.5564 734.75 89.5564C733.139 89.5564 731.833 88.6374 731.833 87.5038C731.833 86.3702 733.139 85.4512 734.75 85.4512C736.361 85.4512 737.667 86.3702 737.667 87.5038Z" fill="#F57F78"/>
<path d="M865.167 80.4662C865.167 81.5998 863.861 82.5188 862.25 82.5188C860.639 82.5188 859.333 81.5998 859.333 80.4662C859.333 79.3326 860.639 78.4136 862.25 78.4136C863.861 78.4136 865.167 79.3326 865.167 80.4662Z" fill="#F57F78"/>
<path d="M909.333 198.933C909.333 200.066 908.027 200.985 906.416 200.985C904.806 200.985 903.5 200.066 903.5 198.933C903.5 197.799 904.806 196.88 906.416 196.88C908.027 196.88 909.333 197.799 909.333 198.933Z" fill="#F57F78"/>
<path d="M959.333 286.902C959.333 288.036 958.027 288.955 956.417 288.955C954.806 288.955 953.5 288.036 953.5 286.902C953.5 285.769 954.806 284.85 956.417 284.85C958.027 284.85 959.333 285.769 959.333 286.902Z" fill="#F57F78"/>
<path d="M861.833 280.451C861.833 281.585 860.527 282.504 858.917 282.504C857.306 282.504 856 281.585 856 280.451C856 279.318 857.306 278.399 858.917 278.399C860.527 278.399 861.833 279.318 861.833 280.451Z" fill="#F57F78"/>
<path d="M723.5 256.406C723.5 257.54 722.194 258.459 720.583 258.459C718.972 258.459 717.667 257.54 717.667 256.406C717.667 255.273 718.972 254.354 720.583 254.354C722.194 254.354 723.5 255.273 723.5 256.406Z" fill="#F57F78"/>
<path d="M598.5 276.346C598.5 277.479 597.194 278.398 595.583 278.398C593.972 278.398 592.667 277.479 592.667 276.346C592.667 275.212 593.972 274.293 595.583 274.293C597.194 274.293 598.5 275.212 598.5 276.346Z" fill="#F57F78"/>
<path d="M256.833 271.068C256.833 272.201 255.527 273.12 253.917 273.12C252.306 273.12 251 272.201 251 271.068C251 269.934 252.306 269.015 253.917 269.015C255.527 269.015 256.833 269.934 256.833 271.068Z" fill="#F57F78"/>
<path d="M25.9998 208.316C25.9998 209.449 24.694 210.368 23.0832 210.368C21.4723 210.368 20.1665 209.449 20.1665 208.316C20.1665 207.182 21.4723 206.263 23.0832 206.263C24.694 206.263 25.9998 207.182 25.9998 208.316Z" fill="#F57F78"/>
<path d="M588.5 149.083C588.5 150.216 587.194 151.135 585.583 151.135C583.972 151.135 582.667 150.216 582.667 149.083C582.667 147.949 583.972 147.03 585.583 147.03C587.194 147.03 588.5 147.949 588.5 149.083Z" fill="#F57F78"/>
<path d="M422.667 256.406C422.667 257.54 421.361 258.459 419.75 258.459C418.139 258.459 416.833 257.54 416.833 256.406C416.833 255.273 418.139 254.354 419.75 254.354C421.361 254.354 422.667 255.273 422.667 256.406Z" fill="#F57F78"/>
<path d="M453.5 138.526C453.5 139.66 452.194 140.579 450.583 140.579C448.972 140.579 447.667 139.66 447.667 138.526C447.667 137.393 448.972 136.474 450.583 136.474C452.194 136.474 453.5 137.393 453.5 138.526Z" fill="#F57F78"/>
<path d="M256.833 227.669C256.833 228.803 255.527 229.722 253.917 229.722C252.306 229.722 251 228.803 251 227.669C251 226.536 252.306 225.617 253.917 225.617C255.527 225.617 256.833 226.536 256.833 227.669Z" fill="#F57F78"/>
<path d="M130.167 117.413C130.167 118.547 128.861 119.466 127.25 119.466C125.639 119.466 124.333 118.547 124.333 117.413C124.333 116.28 125.639 115.361 127.25 115.361C128.861 115.361 130.167 116.28 130.167 117.413Z" fill="#F57F78"/>
</svg>
