<svg width="541" height="563" viewBox="0 0 541 563" fill="none" xmlns="http://www.w3.org/2000/svg">
<path fill-rule="evenodd" clip-rule="evenodd" d="M180.882 140.574H405.542C422.805 140.574 436.799 155.325 436.799 173.521V362.969C436.799 381.165 422.805 395.916 405.542 395.916H180.882C163.619 395.916 149.625 381.165 149.625 362.969V173.521C149.625 155.325 163.619 140.574 180.882 140.574ZM212.139 198.232C207.823 198.232 204.324 201.919 204.324 206.468V330.021C204.324 334.57 207.823 338.258 212.139 338.258H374.285C378.6 338.258 382.099 334.57 382.099 330.021V206.468C382.099 201.919 378.6 198.232 374.285 198.232H212.139Z" fill="#6DFFEE"/>
<g filter="url(#filter0_d)">
<path fill-rule="evenodd" clip-rule="evenodd" d="M417.137 173.177C424.773 171.877 441.405 166.315 448.373 169.318C452.861 171.252 443.225 181.337 441.637 183.463C435.491 191.69 428.226 198.917 420.743 205.939C407.249 218.603 390.021 225.621 370.579 229.892C360.575 232.089 349.637 233.649 338.338 230.884C333.136 229.613 328.351 226.198 323.394 224.713C317.62 222.983 321.141 223.444 316.35 225.463C309.698 228.266 303.756 234.04 298.302 238.376C273.265 258.276 157.47 377.019 140.305 404.053C138.785 406.45 134.497 403.814 136.424 400.945C146.635 385.732 233.357 293.476 263.296 264.596C293.234 235.715 320.26 210.673 333.617 203.135C349.822 193.989 372.642 185.716 390.906 179.765C399.39 177 408.062 174.722 417.137 173.177Z" fill="#3E0070"/>
<path fill-rule="evenodd" clip-rule="evenodd" d="M322.264 357.322C337.591 359.748 339.861 380.686 325.532 379.078C317.612 378.189 313.066 372.483 312.195 367.112C308.657 367.427 305.178 367.936 302.021 368.187C292.401 368.954 282.985 370.092 273.701 371.546C254.414 374.565 236.098 379.439 217.551 383.762C199.247 388.029 180.969 392.416 163.288 397.679C148.308 402.139 129.588 406.489 118.45 415.7C140.624 394.979 172.253 383.501 205.043 376.065C237.565 368.692 273.988 361.38 312.043 365.694C311.836 360.567 315.139 356.192 322.264 357.322Z" fill="#3E0070"/>
<path fill-rule="evenodd" clip-rule="evenodd" d="M289.793 39.6437C290.483 82.6542 285.449 125.162 274.033 163.05C267.117 186.006 257.82 207.763 248.594 229.366C234.309 262.815 219.633 295.942 199.673 325.551C179.597 355.332 158.058 391.003 123.894 407.559C151.905 385.291 168.687 350.928 189.279 322.311C199.109 308.649 207.849 294.309 216.16 279.531C224.221 265.196 231.017 249.926 237.998 234.872C241.398 227.54 244.719 220.159 248.01 212.759C248.991 210.551 253.061 204.945 252.408 202.354C251.751 199.746 243.765 192.37 241.855 189.289C238.011 183.085 235.095 176.354 232.87 169.942C228.605 157.65 226.728 144.613 226.325 132.944C225.391 105.944 235.286 82.0191 250.05 63.7095C252.916 60.1541 291.33 28.0464 288.488 24.8471C288.812 24.8437 289.13 24.8264 289.443 24.7935C289.606 29.7575 289.709 34.7038 289.793 39.6437Z" fill="#2F007C"/>
<path fill-rule="evenodd" clip-rule="evenodd" d="M159.45 134.116C164.973 140.12 166.962 158.928 168.977 167.122C171.372 176.86 172.956 186.448 174.034 196.017C176.355 216.615 176.924 236.963 175.583 256.599C173.398 288.611 168.014 318.903 158.562 347.978C152.776 365.775 144.849 382.644 135.693 398.343C133.967 401.304 121.648 424.945 115.793 421.065C110.527 417.576 124.634 402.694 126.113 400.31C142.791 373.408 153.641 342.833 160.788 310.463C162.345 303.412 164.967 295.36 164.68 287.634C164.475 282.07 166.336 285.474 162.426 280.234C159.069 275.733 154.086 272.087 150.816 267.264C143.71 256.789 140.557 245.158 138.351 234.249C134.065 213.048 133.111 193.124 138.669 174.996C141.749 164.944 145.1 155.04 149.795 145.919C151.008 143.561 155.892 130.25 159.45 134.116Z" fill="#3E0070"/>
<path fill-rule="evenodd" clip-rule="evenodd" d="M487.142 288.925C487.803 288.819 492.241 287.956 490.948 287.186C493.58 288.754 485.348 287.561 492.832 290.283C488.456 290.043 487.993 294.003 485.887 296.775C482.467 301.275 478.054 304.903 473.566 308.373C466.473 313.859 458.692 318.469 449.988 321.848C431.019 329.211 406.832 331.453 383.766 326.891C372.379 324.64 363.373 319.678 352.677 314.181C345.921 310.708 343.652 312.649 337.19 314.484C323.733 318.307 310.415 322.191 297.473 326.937C282.019 332.603 266.753 338.443 251.712 344.77C201.045 366.079 153.16 391.924 112.208 425.707C130.9 401.349 157.596 382.35 184.728 366.751C204.495 355.385 225.791 346.262 247.534 337.773C252.802 335.717 260.089 333.491 264.389 329.98C267.401 327.52 267.63 322.973 269.174 319.049C275.185 303.768 286.236 290.18 299.102 280.397C313.288 269.61 328.388 271.568 347.059 283.668C353.887 288.093 361.66 294.875 369.035 297.509C377.069 300.379 385.457 295.075 392.746 293.228C412.326 288.265 433.297 285.3 454.79 285.205C460.741 285.178 466.784 285.606 472.907 286.428C476.768 286.946 483.817 289.458 487.142 288.925Z" fill="#2F007C"/>
</g>
<g filter="url(#filter1_d)">
<path fill-rule="evenodd" clip-rule="evenodd" d="M403.748 116.348C405.439 129.518 406.055 158.682 400.98 162.541L372.619 158.618C372.623 158.566 372.627 158.514 372.631 158.463C362.277 155.819 355.307 145.573 356.771 134.506L359.549 113.503C361.119 101.627 371.806 93.3015 383.419 94.908L385.374 95.1785C395.92 96.6374 403.602 105.785 403.748 116.348Z" fill="#191847"/>
<path fill-rule="evenodd" clip-rule="evenodd" d="M368.313 132.019C364.522 125.986 362.349 118.935 363.841 111.577C368.141 90.3761 396.651 99.1149 400.889 110.702C405.128 122.288 400.83 149.597 393.25 150.515C390.228 150.881 384.255 148.134 378.438 143.354L378.61 172.664L355.139 169.417L368.313 132.019Z" fill="#EBC3A9"/>
<path fill-rule="evenodd" clip-rule="evenodd" d="M375.137 129.282C374.648 141.311 372.42 154.818 368.771 157.592L340.411 153.669C342.544 125.372 356.378 138.358 359.874 111.922C360.952 111.102 361.976 110.285 362.974 109.596L363.045 108.814C369.316 99.2116 376.227 94.9325 383.776 95.9769C395.101 97.5435 397.963 103.427 400.401 108.424C397.069 116.095 388.08 116.058 379.574 119.95C378.751 119.053 377.632 118.429 376.347 118.252C373.377 117.841 370.643 119.97 370.241 123.009C369.839 126.047 371.922 128.842 374.892 129.253C374.974 129.265 375.056 129.274 375.137 129.282Z" fill="#191847"/>
<path fill-rule="evenodd" clip-rule="evenodd" d="M293.442 345.311C316.015 355.267 335.812 361.422 352.833 363.777C369.855 366.132 386.348 363.152 402.314 354.837C380.267 344.773 361.816 338.713 346.96 336.658C332.104 334.603 314.265 337.487 293.442 345.311Z" fill="#9A6553"/>
<path fill-rule="evenodd" clip-rule="evenodd" d="M371.863 376.261C371.683 375.882 371.542 375.477 371.445 375.046C369.431 366.131 331.304 267.685 328.512 250.265L385.063 258.088C387.185 271.333 393.753 353.517 394.057 369.775C398.338 395.946 403.234 479.462 404.487 485.375C405.805 491.594 393.159 496.134 390.97 488.409C387.488 476.118 379.781 442.375 377.051 422.045C374.492 402.985 372.615 385.898 371.863 376.261Z" fill="#DFB39C"/>
<path fill-rule="evenodd" clip-rule="evenodd" d="M324.119 381.031C300.37 383.79 214.954 382.901 208.967 383.786C202.808 384.697 199.262 371.478 206.95 369.785C219.182 367.09 252.633 361.581 272.654 360.214C288.757 359.114 303.41 358.426 313.217 358.193C316.052 330.5 321.088 263.795 325.416 249.837L375.453 256.759C371.303 270.144 338.318 367.438 333.322 376.942C331.684 380.355 327.999 381.454 324.119 381.031Z" fill="#EBC3A9"/>
<path fill-rule="evenodd" clip-rule="evenodd" d="M207.922 366.529C204.933 365.522 202.708 365.048 201.246 365.108C199.468 365.181 196.885 365.59 193.497 366.336C193.58 368.446 194.323 387.405 195.727 423.215C200.563 424.497 203.109 423.538 203.365 420.337C203.621 417.137 203.862 414.478 204.086 412.359L214.573 385.45C214.775 384.932 214.528 384.345 214.022 384.139C214.013 384.135 214.005 384.132 213.996 384.128L209.899 382.594C208.438 379.701 207.672 377.333 207.599 375.49C207.541 373.993 208.051 371.9 209.13 369.213L209.13 369.213C209.544 368.182 209.063 367.003 208.055 366.579C208.011 366.561 207.967 366.544 207.922 366.529Z" fill="#E4E4E4"/>
<path fill-rule="evenodd" clip-rule="evenodd" d="M387.505 486.968C386.016 489.803 385.173 491.962 384.977 493.445C384.739 495.249 384.684 497.921 384.814 501.463C386.86 501.746 405.246 504.289 439.972 509.093C442.047 504.445 441.565 501.715 438.528 500.901C435.491 500.087 432.972 499.383 430.97 498.789L406.879 483.554C406.416 483.261 405.808 483.408 405.521 483.882C405.516 483.89 405.511 483.898 405.507 483.906L403.318 487.767C400.279 488.735 397.865 489.096 396.078 488.849C394.626 488.648 392.7 487.771 390.299 486.217L390.299 486.217C389.378 485.621 388.159 485.901 387.576 486.843C387.551 486.884 387.527 486.925 387.505 486.968Z" fill="#E4E4E4"/>
<path fill-rule="evenodd" clip-rule="evenodd" d="M325.579 249.858C348.482 246.457 369.345 249.343 388.168 258.517C390.789 291.406 405.746 306.385 402.193 355.763C366.708 368.059 329.463 333.43 293.056 345.173C286.325 320.772 307.357 267.161 325.579 249.858Z" fill="#191847"/>
<path fill-rule="evenodd" clip-rule="evenodd" d="M425.689 223.286L465.014 223.241C473.319 219.916 480.818 217.924 487.511 217.266C489.344 217.464 492.158 218.545 487.344 221.635C482.53 224.725 477.6 228.198 478.11 230.274C478.621 232.349 482.741 232.173 483.007 235.293C483.185 237.373 476.611 236.798 463.287 233.567L430.277 241.936L425.689 223.286ZM303.185 215.646L324.589 218.691C293.959 269.484 277.973 296.086 276.63 298.496C273.609 303.918 277.242 313.316 278.669 318.293C271.596 320.423 273.801 309.217 264.858 312.057C256.696 314.648 249.978 320.461 241.846 313.634C240.846 312.795 239.994 310.038 243.15 308.412C251.013 304.362 262.55 296.965 264.335 294.252C266.77 290.552 279.72 264.35 303.185 215.646Z" fill="#EBC3A9"/>
<path fill-rule="evenodd" clip-rule="evenodd" d="M371.029 154.302L387.645 157.764C386.722 196.542 406.022 223.788 457.461 222.585L457.645 272.713C409.754 272.422 371.024 247.439 369.465 194.089C369.062 180.278 369.191 165.982 371.029 154.302Z" fill="#646261"/>
<path fill-rule="evenodd" clip-rule="evenodd" d="M363.417 148.172L388.034 157.636C382.123 202.322 392.271 232.758 395.065 266.6L326.455 257.109C323.987 268.328 321.85 279.914 319.956 291.855L268.584 284.749C288.604 223.014 319.656 177.405 361.742 147.924L363.406 148.154L363.417 148.172Z" fill="#848484"/>
<path fill-rule="evenodd" clip-rule="evenodd" d="M345.712 194.856C340.26 222.457 338.49 243.851 340.399 259.038L326.455 257.109C331.344 234.884 337.533 214.101 345.712 194.856L345.712 194.856Z" fill="black" fill-opacity="0.1"/>
</g>
<defs>
<filter id="filter0_d" x="108.208" y="24.7935" width="388.625" height="408.913" filterUnits="userSpaceOnUse" color-interpolation-filters="sRGB">
<feFlood flood-opacity="0" result="BackgroundImageFix"/>
<feColorMatrix in="SourceAlpha" type="matrix" values="0 0 0 0 0 0 0 0 0 0 0 0 0 0 0 0 0 0 127 0"/>
<feOffset dy="4"/>
<feGaussianBlur stdDeviation="2"/>
<feColorMatrix type="matrix" values="0 0 0 0 0 0 0 0 0 0 0 0 0 0 0 0 0 0 0.25 0"/>
<feBlend mode="normal" in2="BackgroundImageFix" result="effect1_dropShadow"/>
<feBlend mode="normal" in="SourceGraphic" in2="effect1_dropShadow" result="shape"/>
</filter>
<filter id="filter1_d" x="189.497" y="94.7096" width="304.515" height="422.384" filterUnits="userSpaceOnUse" color-interpolation-filters="sRGB">
<feFlood flood-opacity="0" result="BackgroundImageFix"/>
<feColorMatrix in="SourceAlpha" type="matrix" values="0 0 0 0 0 0 0 0 0 0 0 0 0 0 0 0 0 0 127 0"/>
<feOffset dy="4"/>
<feGaussianBlur stdDeviation="2"/>
<feColorMatrix type="matrix" values="0 0 0 0 0 0 0 0 0 0 0 0 0 0 0 0 0 0 0.25 0"/>
<feBlend mode="normal" in2="BackgroundImageFix" result="effect1_dropShadow"/>
<feBlend mode="normal" in="SourceGraphic" in2="effect1_dropShadow" result="shape"/>
</filter>
</defs>
</svg>
