<svg width="540" height="563" viewBox="0 0 540 563" fill="none" xmlns="http://www.w3.org/2000/svg">
<path fill-rule="evenodd" clip-rule="evenodd" d="M178.187 137.451H407.79C425.433 137.451 439.735 152.467 439.735 170.991V363.842C439.735 382.365 425.433 397.381 407.79 397.381H178.187C160.544 397.381 146.242 382.365 146.242 363.842V170.991C146.242 152.467 160.544 137.451 178.187 137.451ZM210.132 196.145C205.721 196.145 202.145 199.899 202.145 204.53V330.303C202.145 334.933 205.721 338.687 210.132 338.687H375.845C380.256 338.687 383.831 334.933 383.831 330.303V204.53C383.831 199.899 380.256 196.145 375.845 196.145H210.132Z" fill="#456651"/>
<path fill-rule="evenodd" clip-rule="evenodd" d="M419.64 170.641C427.444 169.317 444.442 163.655 451.563 166.712C456.15 168.681 446.302 178.947 444.679 181.111C438.398 189.486 430.973 196.843 423.325 203.991C409.534 216.883 391.927 224.027 372.058 228.374C361.833 230.611 350.655 232.199 339.107 229.385C333.791 228.09 328.901 224.614 323.834 223.102C317.934 221.341 321.532 221.81 316.636 223.866C309.838 226.719 303.765 232.597 298.191 237.011C272.603 257.269 154.259 378.145 136.718 405.665C135.163 408.104 130.782 405.421 132.75 402.501C143.187 387.015 231.817 293.1 262.414 263.701C293.011 234.303 320.632 208.81 334.283 201.136C350.844 191.826 374.166 183.404 392.832 177.347C401.503 174.532 410.365 172.214 419.64 170.641Z" fill="#C69D51"/>
<path fill-rule="evenodd" clip-rule="evenodd" d="M322.68 358.094C338.344 360.563 340.664 381.877 326.02 380.241C317.925 379.336 313.279 373.527 312.389 368.06C308.773 368.38 305.217 368.898 301.991 369.154C292.16 369.935 282.536 371.094 273.048 372.573C253.337 375.646 234.617 380.608 215.663 385.009C196.956 389.352 178.276 393.818 160.205 399.176C144.896 403.716 125.765 408.144 114.382 417.521C137.043 396.428 169.368 384.743 202.879 377.174C236.117 369.668 273.342 362.225 312.234 366.616C312.022 361.397 315.398 356.944 322.68 358.094Z" fill="#C69D51"/>
<path fill-rule="evenodd" clip-rule="evenodd" d="M165.149 133.289C170.423 139.119 171.742 157.94 173.456 166.098C175.494 175.794 176.733 185.367 177.469 194.94C179.056 215.548 178.913 235.967 176.899 255.741C173.616 287.977 167.218 318.601 156.825 348.15C150.463 366.238 142.009 383.47 132.376 399.572C130.559 402.61 117.51 426.804 111.835 423.119C106.73 419.805 121.249 404.345 122.799 401.896C140.288 374.267 152.121 343.16 160.34 310.385C162.131 303.246 165.013 295.062 164.998 287.311C164.987 281.729 166.716 285.082 163.018 279.96C159.843 275.561 155.024 272.078 151.947 267.352C145.259 257.088 142.534 245.518 140.725 234.64C137.209 213.498 136.956 193.519 143.102 175.107C146.509 164.897 150.18 154.827 155.156 145.494C156.442 143.082 161.753 129.534 165.149 133.289Z" fill="#C69D51"/>
<path fill-rule="evenodd" clip-rule="evenodd" d="M289.494 34.7083C290.2 78.4915 285.054 121.763 273.388 160.332C266.319 183.7 256.818 205.848 247.389 227.839C232.789 261.889 217.791 295.611 197.391 325.752C176.874 356.068 154.861 392.38 119.945 409.233C148.573 386.565 165.724 351.585 186.769 322.454C196.815 308.547 205.748 293.949 214.241 278.906C222.479 264.313 229.425 248.768 236.56 233.444C240.034 225.98 243.428 218.466 246.792 210.934C247.795 208.686 251.954 202.979 251.287 200.342C250.616 197.687 242.453 190.178 240.502 187.042C236.573 180.727 233.593 173.875 231.319 167.348C226.96 154.835 225.042 141.563 224.629 129.684C223.676 102.2 233.788 77.8449 248.877 59.2064C251.806 55.5871 291.065 22.9026 288.16 19.6458C288.492 19.6424 288.817 19.6247 289.136 19.5912C289.304 24.6445 289.408 29.6795 289.494 34.7083Z" fill="#F4D7A2"/>
<path fill-rule="evenodd" clip-rule="evenodd" d="M485.994 284.238C486.658 284.122 491.12 283.183 489.836 282.429C492.451 283.965 484.216 282.895 491.678 285.514C487.294 285.342 486.77 289.331 484.616 292.152C481.119 296.731 476.64 300.449 472.088 304.01C464.893 309.638 457.021 314.397 448.243 317.933C429.112 325.637 404.828 328.273 381.771 324.05C370.388 321.965 361.434 317.118 350.793 311.758C344.071 308.373 341.767 310.36 335.26 312.308C321.71 316.365 308.298 320.481 295.25 325.458C279.67 331.4 264.275 337.514 249.099 344.113C197.976 366.342 149.574 393.088 108.002 427.707C127.112 402.917 154.166 383.39 181.606 367.275C201.597 355.534 223.087 346.023 245.015 337.143C250.328 334.992 257.669 332.638 262.033 329.04C265.09 326.519 265.389 321.942 266.997 317.972C273.255 302.51 284.541 288.671 297.588 278.631C311.975 267.559 327.085 269.289 345.622 281.162C352.401 285.504 360.092 292.203 367.446 294.735C375.458 297.494 383.948 292.028 391.285 290.055C410.991 284.756 432.062 281.443 453.612 281.008C459.58 280.887 465.632 281.222 471.759 281.952C475.623 282.412 482.652 284.827 485.994 284.238Z" fill="#F4D7A2"/>
<g filter="url(#filter0_d)">
<path fill-rule="evenodd" clip-rule="evenodd" d="M403.937 118.954C405.665 132.362 406.295 162.049 401.108 165.978L372.124 161.984C372.128 161.931 372.132 161.878 372.136 161.826C361.554 159.134 354.43 148.705 355.926 137.438L358.766 116.058C360.371 103.969 371.293 95.494 383.161 97.1293L385.16 97.4047C395.937 98.8898 403.788 108.202 403.937 118.954Z" fill="#191847"/>
<path fill-rule="evenodd" clip-rule="evenodd" d="M367.725 134.907C363.851 128.766 361.63 121.587 363.155 114.097C367.549 92.5157 396.686 101.412 401.018 113.206C405.349 125.001 400.957 152.801 393.211 153.735C390.122 154.107 384.017 151.311 378.073 146.445L378.248 176.282L354.261 172.977L367.725 134.907Z" fill="#EBC3A9"/>
<path fill-rule="evenodd" clip-rule="evenodd" d="M374.698 132.12C374.197 144.365 371.92 158.114 368.191 160.939L339.207 156.945C341.387 128.14 355.525 141.359 359.099 114.448C360.2 113.614 361.247 112.782 362.267 112.08L362.34 111.284C368.748 101.509 375.811 97.1533 383.527 98.2165C395.1 99.8113 398.025 105.801 400.517 110.887C397.112 118.696 387.925 118.658 379.232 122.62C378.391 121.708 377.247 121.072 375.934 120.892C372.898 120.473 370.104 122.641 369.694 125.734C369.283 128.826 371.411 131.673 374.447 132.091C374.531 132.102 374.614 132.112 374.698 132.12Z" fill="#191847"/>
<path fill-rule="evenodd" clip-rule="evenodd" d="M291.207 352.031C314.276 362.166 334.509 368.432 351.905 370.829C369.3 373.226 386.157 370.193 402.474 361.728C379.942 351.483 361.085 345.315 345.902 343.223C330.719 341.131 312.488 344.067 291.207 352.031Z" fill="#9A6553"/>
<path fill-rule="evenodd" clip-rule="evenodd" d="M371.353 383.536C371.169 383.15 371.025 382.738 370.925 382.3C368.867 373.224 329.901 273.01 327.048 255.277L384.843 263.241C387.012 276.724 393.724 360.384 394.035 376.934C398.41 403.575 403.414 488.592 404.694 494.61C406.042 500.942 393.117 505.563 390.88 497.699C387.322 485.187 379.445 450.838 376.655 430.143C374.039 410.741 372.122 393.346 371.353 383.536Z" fill="#DFB39C"/>
<path fill-rule="evenodd" clip-rule="evenodd" d="M322.559 388.392C298.287 391.201 210.991 390.296 204.873 391.197C198.579 392.125 194.955 378.668 202.811 376.944C215.313 374.201 249.5 368.592 269.961 367.201C286.419 366.082 301.394 365.381 311.417 365.144C314.314 336.953 319.461 269.05 323.884 254.841L375.022 261.888C370.781 275.513 337.07 374.555 331.964 384.23C330.29 387.704 326.523 388.823 322.559 388.392Z" fill="#EBC3A9"/>
<path fill-rule="evenodd" clip-rule="evenodd" d="M203.805 373.631C200.75 372.606 198.476 372.123 196.982 372.184C195.164 372.259 192.525 372.675 189.063 373.434C189.147 375.582 189.907 394.882 191.342 431.335C196.284 432.64 198.886 431.664 199.148 428.406C199.41 425.148 199.655 422.441 199.885 420.284L210.603 392.891C210.809 392.364 210.557 391.767 210.039 391.557C210.03 391.553 210.021 391.55 210.012 391.546L205.825 389.985C204.332 387.04 203.549 384.629 203.475 382.753C203.415 381.229 203.937 379.099 205.04 376.363L205.04 376.363C205.463 375.314 204.971 374.113 203.94 373.682C203.896 373.663 203.851 373.646 203.805 373.631Z" fill="#E4E4E4"/>
<path fill-rule="evenodd" clip-rule="evenodd" d="M387.339 496.233C385.817 499.12 384.956 501.318 384.756 502.827C384.512 504.663 384.456 507.384 384.589 510.989C386.68 511.277 405.471 513.866 440.961 518.756C443.081 514.025 442.589 511.245 439.485 510.417C436.381 509.589 433.806 508.872 431.761 508.267L407.14 492.759C406.666 492.46 406.044 492.609 405.752 493.092C405.747 493.1 405.742 493.109 405.737 493.117L403.5 497.047C400.394 498.033 397.927 498.4 396.101 498.148C394.617 497.944 392.648 497.051 390.195 495.469L390.195 495.469C389.254 494.862 388.008 495.148 387.412 496.106C387.386 496.148 387.362 496.19 387.339 496.233Z" fill="#E4E4E4"/>
<path fill-rule="evenodd" clip-rule="evenodd" d="M324.049 254.864C347.456 251.401 368.778 254.339 388.015 263.678C390.694 297.158 405.98 312.406 402.349 362.671C366.084 375.188 328.019 339.937 290.81 351.891C283.931 327.052 305.427 272.478 324.049 254.864Z" fill="#E2987F"/>
<path fill-rule="evenodd" clip-rule="evenodd" d="M426.363 227.814L466.553 227.768C475.041 224.383 482.705 222.356 489.546 221.687C491.419 221.888 494.295 222.988 489.375 226.134C484.454 229.279 479.416 232.815 479.938 234.928C480.46 237.04 484.671 236.861 484.943 240.037C485.124 242.155 478.406 241.569 464.789 238.28L431.052 246.799L426.363 227.814ZM301.164 220.037L323.039 223.137C291.735 274.843 275.397 301.922 274.025 304.376C270.937 309.895 274.65 319.462 276.109 324.528C268.88 326.696 271.134 315.29 261.994 318.18C253.652 320.818 246.786 326.735 238.475 319.786C237.454 318.931 236.582 316.125 239.808 314.47C247.844 310.346 259.635 302.817 261.46 300.055C263.948 296.289 277.183 269.616 301.164 220.037Z" fill="#EBC3A9"/>
<path fill-rule="evenodd" clip-rule="evenodd" d="M370.501 157.59L387.482 161.114C386.538 200.589 406.263 228.323 458.834 227.098L459.021 278.126C410.076 277.83 370.494 252.399 368.902 198.091C368.489 184.033 368.622 169.479 370.501 157.59Z" fill="#D3CCC3"/>
<path fill-rule="evenodd" clip-rule="evenodd" d="M362.721 151.35L387.879 160.985C381.839 206.474 392.21 237.456 395.065 271.906L324.946 262.245C322.423 273.665 320.24 285.46 318.304 297.616L265.801 290.381C286.261 227.537 317.997 181.109 361.009 151.098L362.709 151.332L362.721 151.35Z" fill="#E9E5DC"/>
<path fill-rule="evenodd" clip-rule="evenodd" d="M344.626 198.873C339.055 226.97 337.245 248.748 339.197 264.208L324.946 262.245C329.943 239.621 336.268 218.465 344.626 198.873L344.626 198.873Z" fill="black" fill-opacity="0.1"/>
</g>
<defs>
<filter id="filter0_d" x="185.062" y="96.9274" width="311.039" height="429.829" filterUnits="userSpaceOnUse" color-interpolation-filters="sRGB">
<feFlood flood-opacity="0" result="BackgroundImageFix"/>
<feColorMatrix in="SourceAlpha" type="matrix" values="0 0 0 0 0 0 0 0 0 0 0 0 0 0 0 0 0 0 127 0"/>
<feOffset dy="4"/>
<feGaussianBlur stdDeviation="2"/>
<feColorMatrix type="matrix" values="0 0 0 0 0 0 0 0 0 0 0 0 0 0 0 0 0 0 0.25 0"/>
<feBlend mode="normal" in2="BackgroundImageFix" result="effect1_dropShadow"/>
<feBlend mode="normal" in="SourceGraphic" in2="effect1_dropShadow" result="shape"/>
</filter>
</defs>
</svg>
