<?xml version="1.0" standalone="no"?>
<!DOCTYPE svg PUBLIC "-//W3C//DTD SVG 20010904//EN"
 "http://www.w3.org/TR/2001/REC-SVG-20010904/DTD/svg10.dtd">
<svg version="1.0" xmlns="http://www.w3.org/2000/svg"
 width="660.000000pt" height="660.000000pt" viewBox="0 0 660.000000 660.000000"
 preserveAspectRatio="xMidYMid meet">
<metadata>
Created by potrace 1.11, written by Peter Selinger 2001-2013
</metadata>
<g transform="translate(0.000000,660.000000) scale(0.100000,-0.100000)"
fill="#000000" stroke="none">
<path d="M3099 5795 c-2 -2 -33 -6 -69 -9 -64 -6 -90 -10 -160 -22 -19 -4 -44
-8 -55 -9 -16 -2 -177 -43 -230 -59 -5 -1 -30 -8 -54 -15 -24 -7 -55 -17 -70
-23 -14 -6 -28 -12 -31 -12 -11 -2 -146 -58 -160 -67 -8 -5 -26 -14 -40 -20
-98 -41 -282 -150 -395 -233 -38 -28 -74 -54 -80 -58 -68 -49 -338 -314 -385
-377 -14 -19 -34 -44 -45 -56 -49 -52 -275 -415 -275 -441 0 -2 -15 -36 -34
-76 -61 -132 -133 -351 -161 -488 -2 -12 -15 -77 -20 -100 -3 -14 -8 -48 -10
-76 -3 -28 -8 -62 -11 -75 -4 -19 -9 -115 -16 -294 0 -5 2 -59 6 -120 6 -105
8 -129 21 -220 18 -132 18 -125 -2 -125 -10 0 -23 -4 -29 -9 -5 -6 -20 -12
-34 -15 -18 -3 -535 -174 -535 -176 0 0 -51 -18 -113 -38 -62 -21 -110 -41
-106 -45 5 -4 9 -13 10 -20 2 -7 14 -46 29 -87 14 -41 27 -82 29 -90 2 -8 16
-49 31 -90 15 -41 29 -84 32 -95 19 -67 194 -580 201 -586 6 -6 78 13 142 38
8 4 18 7 23 8 4 2 8 3 10 5 1 1 9 3 17 5 8 2 94 30 190 63 96 33 191 64 210
70 19 6 82 27 140 47 58 20 114 39 125 42 11 3 30 7 42 10 15 4 25 -2 34 -18
7 -13 17 -29 23 -35 6 -6 29 -35 51 -64 65 -84 313 -331 405 -402 82 -63 223
-161 265 -184 11 -6 36 -20 56 -32 84 -47 280 -142 295 -142 3 0 20 -6 37 -14
46 -20 178 -65 207 -70 14 -3 41 -10 60 -15 43 -13 213 -49 260 -55 134 -17
197 -21 370 -21 180 0 289 6 365 21 17 3 39 7 50 8 11 2 45 8 75 14 30 6 66
14 80 16 27 5 226 63 250 73 8 3 17 7 20 8 3 1 14 5 25 9 11 5 37 14 57 22 82
30 262 118 330 161 21 12 40 23 42 23 21 0 302 208 377 280 21 19 46 42 56 51
44 38 189 199 250 279 57 74 53 68 94 130 157 237 253 440 332 705 28 93 60
248 72 340 4 28 9 61 11 75 4 21 14 255 14 340 0 31 -36 16 428 171 199 67
362 125 362 129 0 6 -265 804 -271 817 -1 2 -2 6 -4 11 -1 4 -4 14 -8 22 -3 8
-13 39 -22 67 -9 29 -20 55 -23 57 -5 3 -405 -126 -419 -135 -2 -1 -6 -2 -10
-4 -5 -1 -15 -4 -23 -7 -39 -15 -265 -87 -266 -85 0 1 -22 43 -49 92 -41 78
-168 281 -185 295 -3 3 -21 25 -40 50 -68 88 -148 176 -229 254 -30 28 -63 60
-75 71 -49 47 -218 177 -301 231 -98 63 -169 103 -285 159 -79 38 -82 40 -169
75 -103 42 -332 108 -431 125 -19 3 -42 8 -50 10 -8 2 -37 6 -65 10 -27 3 -66
8 -85 11 -38 7 -476 15 -481 9z"/>
</g>
</svg>
