<svg width="1007" height="391" viewBox="0 0 1007 391" fill="none" xmlns="http://www.w3.org/2000/svg">
<path d="M1003 36.7742L839.667 102.165M1003 36.7742V67.2704M1003 36.7742V80.4659M1003 36.7742L607.583 85.1577M839.667 102.165L1003 80.4659M839.667 102.165L859.25 327.662M839.667 102.165L554.25 293.647M1003 80.4659V67.2704M1003 80.4659V171.368M1003 67.2704L859.25 327.662M859.25 327.662L1003 171.368M859.25 327.662L1003 302.737V171.368M859.25 327.662L554.25 293.647M554.25 293.647L607.583 85.1577M554.25 293.647L262.583 241.451L607.583 85.1577M554.25 293.647L169.667 388.361M554.25 293.647L254.667 318.278M607.583 85.1577L283.833 47.6238M254.667 318.278L169.667 388.361M254.667 318.278L3 78.1201M254.667 318.278L283.833 47.6238M169.667 388.361L3 293.647V78.1201M3 78.1201L42.5833 47.6238H283.833" stroke="#F57F78" stroke-opacity="0.58" stroke-width="0.815833"/>
<ellipse cx="284.667" cy="47.917" rx="4.16667" ry="2.93233" fill="#F5BFBC"/>
<ellipse cx="607.166" cy="86.0373" rx="4.16667" ry="2.93233" fill="#F5BFBC"/>
<ellipse cx="554.667" cy="293.06" rx="4.16667" ry="2.93233" fill="#F5BFBC"/>
<ellipse cx="254.667" cy="317.105" rx="4.16667" ry="2.93233" fill="#F5BFBC"/>
<ellipse cx="169.666" cy="388.068" rx="4.16667" ry="2.93233" fill="#F5BFBC"/>
<ellipse cx="263" cy="241.451" rx="4.16667" ry="2.93233" fill="#F5BFBC"/>
<ellipse cx="43.8334" cy="47.9172" rx="4.16667" ry="2.93233" fill="#F5BFBC"/>
<ellipse cx="839.667" cy="102.459" rx="4.16667" ry="2.93233" fill="#F5BFBC"/>
<ellipse cx="858.833" cy="327.075" rx="4.16667" ry="2.93233" fill="#F5BFBC"/>
<path d="M482.167 14.782L474.667 87.5038M482.167 14.782L705.917 1M482.167 14.782L779.667 207.436M482.167 14.782L221.333 120.053M482.167 14.782L399.667 54.6617M474.667 87.5038L705.917 1M474.667 87.5038L453.833 313M474.667 87.5038L698 353.76L867.583 362.85M474.667 87.5038L221.333 367.542M474.667 87.5038L221.333 120.053M705.917 1L399.667 54.6617M705.917 1L1000.5 115.654V160.226M705.917 1L779.667 207.436M399.667 54.6617L453.833 313M399.667 54.6617L221.333 120.053M399.667 54.6617L3 100.993M399.667 54.6617L779.667 207.436M779.667 207.436L453.833 313M779.667 207.436L862.441 353.76M779.667 207.436L1000.5 160.226M453.833 313L221.333 367.542M221.333 367.542L3 100.993M221.333 367.542V120.053M867.583 362.85L1000.5 331.181M867.583 362.85L862.441 353.76M1000.5 331.181L862.441 353.76M1000.5 331.181V160.226M221.333 120.053L3 100.993M3 100.993V343.497" stroke="#F57F78" stroke-opacity="0.13" stroke-width="0.815833"/>
<g filter="url(#filter0_d)">
<path d="M864.25 80.1729L908.417 198.346M864.25 80.1729L733.417 129.729M864.25 80.1729L738 86.624M864.25 80.1729L689.667 109.496M864.25 80.1729L1002.74 129.729M908.417 198.346L723 257.286M908.417 198.346L689.667 109.496M908.417 198.346L957.584 287.782M908.417 198.346L860.5 280.744M908.417 198.346L738 86.624M908.417 198.346L1002.74 177.573V129.729M733.417 129.729L738 86.624M733.417 129.729L586.75 147.91M733.417 129.729L860.5 280.744M733.417 129.729L598 277.812M733.417 129.729L723 257.286M738 86.624L689.667 109.496M738 86.624L586.75 147.91M689.667 109.496L723 257.286M689.667 109.496L598 277.812M689.667 109.496L586.75 147.91M689.667 109.496L453.834 137.353M586.75 147.91L723 257.286M586.75 147.91L598 277.812M586.75 147.91L453.834 137.353M586.75 147.91L422.584 257.286M723 257.286L598 277.812M723 257.286L860.5 280.744M723 257.286L957.584 287.782M860.5 280.744L957.584 287.782M957.584 287.782L1002.74 239.042M957.584 287.782L1002.74 277.339V239.042M598 277.812L422.584 257.286M598 277.812L453.834 137.353M422.584 257.286L453.834 137.353M422.584 257.286L268.417 117.12M422.584 257.286L255.917 228.256M422.584 257.286L255.917 271.654M422.584 257.286L202.167 311.827M453.834 137.353L268.417 117.12M453.834 137.353L255.917 228.256M268.417 117.12L255.917 228.256M268.417 117.12H129.667M255.917 228.256V271.654M255.917 228.256L24.2504 207.729M255.917 228.256L129.667 117.12M255.917 228.256L202.167 311.827M255.917 271.654L202.167 311.827M255.917 271.654L129.667 117.12M255.917 271.654L24.2504 207.729M202.167 311.827L24.2504 207.729M202.167 311.827L5.3972 317.262V247.902M24.2504 207.729L129.667 117.12M24.2504 207.729L3.83325 159.523M24.2504 207.729L5.3972 247.902M129.667 117.12L3.83374 140.943L3.83325 159.523M129.667 117.12L3.83325 159.523M3.83325 159.523L5.3972 247.902M1002.74 129.729V239.042" stroke="#F57F78" stroke-width="0.815833"/>
</g>
<path d="M271.333 118C271.333 119.134 270.027 120.053 268.417 120.053C266.806 120.053 265.5 119.134 265.5 118C265.5 116.867 266.806 115.948 268.417 115.948C270.027 115.948 271.333 116.867 271.333 118Z" fill="#F57F78"/>
<path d="M736.333 130.316C736.333 131.449 735.027 132.368 733.417 132.368C731.806 132.368 730.5 131.449 730.5 130.316C730.5 129.182 731.806 128.263 733.417 128.263C735.027 128.263 736.333 129.182 736.333 130.316Z" fill="#F57F78"/>
<path d="M693 111.549C693 112.682 691.694 113.601 690.083 113.601C688.473 113.601 687.167 112.682 687.167 111.549C687.167 110.415 688.473 109.496 690.083 109.496C691.694 109.496 693 110.415 693 111.549Z" fill="#F57F78"/>
<path d="M739.667 87.5038C739.667 88.6374 738.361 89.5564 736.75 89.5564C735.139 89.5564 733.833 88.6374 733.833 87.5038C733.833 86.3702 735.139 85.4512 736.75 85.4512C738.361 85.4512 739.667 86.3702 739.667 87.5038Z" fill="#F57F78"/>
<path d="M867.167 80.4662C867.167 81.5998 865.861 82.5188 864.25 82.5188C862.639 82.5188 861.333 81.5998 861.333 80.4662C861.333 79.3326 862.639 78.4136 864.25 78.4136C865.861 78.4136 867.167 79.3326 867.167 80.4662Z" fill="#F57F78"/>
<path d="M911.333 198.933C911.333 200.066 910.027 200.985 908.416 200.985C906.806 200.985 905.5 200.066 905.5 198.933C905.5 197.799 906.806 196.88 908.416 196.88C910.027 196.88 911.333 197.799 911.333 198.933Z" fill="#F57F78"/>
<path d="M961.333 286.902C961.333 288.036 960.027 288.955 958.417 288.955C956.806 288.955 955.5 288.036 955.5 286.902C955.5 285.769 956.806 284.85 958.417 284.85C960.027 284.85 961.333 285.769 961.333 286.902Z" fill="#F57F78"/>
<path d="M863.833 280.451C863.833 281.585 862.527 282.504 860.917 282.504C859.306 282.504 858 281.585 858 280.451C858 279.318 859.306 278.399 860.917 278.399C862.527 278.399 863.833 279.318 863.833 280.451Z" fill="#F57F78"/>
<path d="M725.5 256.406C725.5 257.54 724.194 258.459 722.583 258.459C720.972 258.459 719.667 257.54 719.667 256.406C719.667 255.273 720.972 254.354 722.583 254.354C724.194 254.354 725.5 255.273 725.5 256.406Z" fill="#F57F78"/>
<path d="M600.5 276.346C600.5 277.479 599.194 278.398 597.583 278.398C595.972 278.398 594.667 277.479 594.667 276.346C594.667 275.212 595.972 274.293 597.583 274.293C599.194 274.293 600.5 275.212 600.5 276.346Z" fill="#F57F78"/>
<path d="M258.833 271.068C258.833 272.201 257.527 273.12 255.917 273.12C254.306 273.12 253 272.201 253 271.068C253 269.934 254.306 269.015 255.917 269.015C257.527 269.015 258.833 269.934 258.833 271.068Z" fill="#F57F78"/>
<path d="M27.9998 208.316C27.9998 209.449 26.694 210.368 25.0832 210.368C23.4723 210.368 22.1665 209.449 22.1665 208.316C22.1665 207.182 23.4723 206.263 25.0832 206.263C26.694 206.263 27.9998 207.182 27.9998 208.316Z" fill="#F57F78"/>
<path d="M590.5 149.083C590.5 150.216 589.194 151.135 587.583 151.135C585.972 151.135 584.667 150.216 584.667 149.083C584.667 147.949 585.972 147.03 587.583 147.03C589.194 147.03 590.5 147.949 590.5 149.083Z" fill="#F57F78"/>
<path d="M424.667 256.406C424.667 257.54 423.361 258.459 421.75 258.459C420.139 258.459 418.833 257.54 418.833 256.406C418.833 255.273 420.139 254.354 421.75 254.354C423.361 254.354 424.667 255.273 424.667 256.406Z" fill="#F57F78"/>
<path d="M455.5 138.526C455.5 139.66 454.194 140.579 452.583 140.579C450.972 140.579 449.667 139.66 449.667 138.526C449.667 137.393 450.972 136.474 452.583 136.474C454.194 136.474 455.5 137.393 455.5 138.526Z" fill="#F57F78"/>
<path d="M258.833 227.669C258.833 228.803 257.527 229.722 255.917 229.722C254.306 229.722 253 228.803 253 227.669C253 226.536 254.306 225.617 255.917 225.617C257.527 225.617 258.833 226.536 258.833 227.669Z" fill="#F57F78"/>
<path d="M132.167 117.413C132.167 118.547 130.861 119.466 129.25 119.466C127.639 119.466 126.333 118.547 126.333 117.413C126.333 116.28 127.639 115.361 129.25 115.361C130.861 115.361 132.167 116.28 132.167 117.413Z" fill="#F57F78"/>
<defs>
<filter id="filter0_d" x="0.16196" y="79.7612" width="1006.25" height="244.446" filterUnits="userSpaceOnUse" color-interpolation-filters="sRGB">
<feFlood flood-opacity="0" result="BackgroundImageFix"/>
<feColorMatrix in="SourceAlpha" type="matrix" values="0 0 0 0 0 0 0 0 0 0 0 0 0 0 0 0 0 0 127 0"/>
<feOffset dy="3.26333"/>
<feGaussianBlur stdDeviation="1.63167"/>
<feColorMatrix type="matrix" values="0 0 0 0 0.977474 0 0 0 0 0.698971 0 0 0 0 0.68245 0 0 0 1 0"/>
<feBlend mode="normal" in2="BackgroundImageFix" result="effect1_dropShadow"/>
<feBlend mode="normal" in="SourceGraphic" in2="effect1_dropShadow" result="shape"/>
</filter>
</defs>
</svg>
