<svg width="1007" height="435" viewBox="0 0 1007 435" fill="none" xmlns="http://www.w3.org/2000/svg">
<path d="M1003 40.8103L839.667 113.579M1003 40.8103V74.7472M1003 40.8103V89.4314M1003 40.8103L607.583 94.6524M839.667 113.579L1003 89.4314M839.667 113.579L859.25 364.516M839.667 113.579L554.25 326.663M1003 89.4314V74.7472M1003 89.4314V190.589M1003 74.7472L859.25 364.516M859.25 364.516L1003 190.589M859.25 364.516L1003 336.779V190.589M859.25 364.516L554.25 326.663M554.25 326.663L607.583 94.6524M554.25 326.663L262.583 268.579L607.583 94.6524M554.25 326.663L169.667 432.063M554.25 326.663L254.667 354.074M607.583 94.6524L283.833 52.884M254.667 354.074L169.667 432.063M254.667 354.074L3 86.8208M254.667 354.074L283.833 52.884M169.667 432.063L3 326.663V86.8208M3 86.8208L42.5833 52.884H283.833" stroke="#F57F78" stroke-opacity="0.58" stroke-width="0.815833"/>
<ellipse cx="284.667" cy="53.2102" rx="4.16667" ry="3.26316" fill="#F5BFBC"/>
<ellipse cx="607.166" cy="95.6313" rx="4.16667" ry="3.26316" fill="#F5BFBC"/>
<ellipse cx="554.667" cy="326.01" rx="4.16667" ry="3.26316" fill="#F5BFBC"/>
<ellipse cx="254.667" cy="352.769" rx="4.16667" ry="3.26316" fill="#F5BFBC"/>
<ellipse cx="169.666" cy="431.737" rx="4.16667" ry="3.26316" fill="#F5BFBC"/>
<ellipse cx="263" cy="268.579" rx="4.16667" ry="3.26316" fill="#F5BFBC"/>
<ellipse cx="43.8334" cy="53.2104" rx="4.16667" ry="3.26316" fill="#F5BFBC"/>
<ellipse cx="839.667" cy="113.905" rx="4.16667" ry="3.26316" fill="#F5BFBC"/>
<ellipse cx="858.833" cy="363.863" rx="4.16667" ry="3.26316" fill="#F5BFBC"/>
<path d="M482.167 16.3368L474.667 97.2632M482.167 16.3368L705.917 1M482.167 16.3368L779.667 230.726M482.167 16.3368L221.333 133.484M482.167 16.3368L399.667 60.7158M474.667 97.2632L705.917 1M474.667 97.2632L453.833 348.2M474.667 97.2632L698 393.558L867.583 403.674M474.667 97.2632L221.333 408.895M474.667 97.2632L221.333 133.484M705.917 1L399.667 60.7158M705.917 1L1000.5 128.59V178.19M705.917 1L779.667 230.726M399.667 60.7158L453.833 348.2M399.667 60.7158L221.333 133.484M399.667 60.7158L3 112.274M399.667 60.7158L779.667 230.726M779.667 230.726L453.833 348.2M779.667 230.726L862.441 393.558M779.667 230.726L1000.5 178.19M453.833 348.2L221.333 408.895M221.333 408.895L3 112.274M221.333 408.895V133.484M867.583 403.674L1000.5 368.432M867.583 403.674L862.441 393.558M1000.5 368.432L862.441 393.558M1000.5 368.432V178.19M221.333 133.484L3 112.274M3 112.274V382.137" stroke="#F57F78" stroke-opacity="0.13" stroke-width="0.815833"/>
<g filter="url(#filter0_d)">
<path d="M864.25 89.1052L908.417 220.611M864.25 89.1052L733.417 144.253M864.25 89.1052L738 96.2842M864.25 89.1052L689.667 121.737M864.25 89.1052L1002.74 144.253M908.417 220.611L723 286.2M908.417 220.611L689.667 121.737M908.417 220.611L957.584 320.137M908.417 220.611L860.5 312.305M908.417 220.611L738 96.2842M908.417 220.611L1002.74 197.495V144.253M733.417 144.253L738 96.2842M733.417 144.253L586.75 164.484M733.417 144.253L860.5 312.305M733.417 144.253L598 309.042M733.417 144.253L723 286.2M738 96.2842L689.667 121.737M738 96.2842L586.75 164.484M689.667 121.737L723 286.2M689.667 121.737L598 309.042M689.667 121.737L586.75 164.484M689.667 121.737L453.834 152.737M586.75 164.484L723 286.2M586.75 164.484L598 309.042M586.75 164.484L453.834 152.737M586.75 164.484L422.584 286.2M723 286.2L598 309.042M723 286.2L860.5 312.305M723 286.2L957.584 320.137M860.5 312.305L957.584 320.137M957.584 320.137L1002.74 265.898M957.584 320.137L1002.74 308.516V265.898M598 309.042L422.584 286.2M598 309.042L453.834 152.737M422.584 286.2L453.834 152.737M422.584 286.2L268.417 130.221M422.584 286.2L255.917 253.895M422.584 286.2L255.917 302.19M422.584 286.2L202.167 346.895M453.834 152.737L268.417 130.221M453.834 152.737L255.917 253.895M268.417 130.221L255.917 253.895M268.417 130.221H129.667M255.917 253.895V302.19M255.917 253.895L24.2504 231.053M255.917 253.895L129.667 130.221M255.917 253.895L202.167 346.895M255.917 302.19L202.167 346.895M255.917 302.19L129.667 130.221M255.917 302.19L24.2504 231.053M202.167 346.895L24.2504 231.053M202.167 346.895L5.3972 352.942V275.758M24.2504 231.053L129.667 130.221M24.2504 231.053L3.83325 177.407M24.2504 231.053L5.3972 275.758M129.667 130.221L3.83374 156.732L3.83325 177.407M129.667 130.221L3.83325 177.407M3.83325 177.407L5.3972 275.758M1002.74 144.253V265.898" stroke="#F57F78" stroke-width="0.815833"/>
</g>
<path d="M271.333 131.2C271.333 132.462 270.027 133.484 268.417 133.484C266.806 133.484 265.5 132.462 265.5 131.2C265.5 129.939 266.806 128.916 268.417 128.916C270.027 128.916 271.333 129.939 271.333 131.2Z" fill="#F57F78"/>
<path d="M736.333 144.905C736.333 146.167 735.027 147.19 733.417 147.19C731.806 147.19 730.5 146.167 730.5 144.905C730.5 143.644 731.806 142.621 733.417 142.621C735.027 142.621 736.333 143.644 736.333 144.905Z" fill="#F57F78"/>
<path d="M693 124.021C693 125.282 691.694 126.305 690.083 126.305C688.473 126.305 687.167 125.282 687.167 124.021C687.167 122.759 688.473 121.737 690.083 121.737C691.694 121.737 693 122.759 693 124.021Z" fill="#F57F78"/>
<path d="M739.667 97.2632C739.667 98.5248 738.361 99.5474 736.75 99.5474C735.139 99.5474 733.833 98.5248 733.833 97.2632C733.833 96.0017 735.139 94.979 736.75 94.979C738.361 94.979 739.667 96.0017 739.667 97.2632Z" fill="#F57F78"/>
<path d="M867.167 89.4317C867.167 90.6932 865.861 91.7159 864.25 91.7159C862.639 91.7159 861.333 90.6932 861.333 89.4317C861.333 88.1701 862.639 87.1475 864.25 87.1475C865.861 87.1475 867.167 88.1701 867.167 89.4317Z" fill="#F57F78"/>
<path d="M911.333 221.263C911.333 222.525 910.027 223.547 908.416 223.547C906.806 223.547 905.5 222.525 905.5 221.263C905.5 220.002 906.806 218.979 908.416 218.979C910.027 218.979 911.333 220.002 911.333 221.263Z" fill="#F57F78"/>
<path d="M961.333 319.158C961.333 320.42 960.027 321.442 958.417 321.442C956.806 321.442 955.5 320.42 955.5 319.158C955.5 317.896 956.806 316.874 958.417 316.874C960.027 316.874 961.333 317.896 961.333 319.158Z" fill="#F57F78"/>
<path d="M863.833 311.979C863.833 313.241 862.527 314.263 860.917 314.263C859.306 314.263 858 313.241 858 311.979C858 310.718 859.306 309.695 860.917 309.695C862.527 309.695 863.833 310.718 863.833 311.979Z" fill="#F57F78"/>
<path d="M725.5 285.221C725.5 286.483 724.194 287.505 722.583 287.505C720.972 287.505 719.667 286.483 719.667 285.221C719.667 283.96 720.972 282.937 722.583 282.937C724.194 282.937 725.5 283.96 725.5 285.221Z" fill="#F57F78"/>
<path d="M600.5 307.41C600.5 308.672 599.194 309.695 597.583 309.695C595.972 309.695 594.667 308.672 594.667 307.41C594.667 306.149 595.972 305.126 597.583 305.126C599.194 305.126 600.5 306.149 600.5 307.41Z" fill="#F57F78"/>
<path d="M258.833 301.537C258.833 302.798 257.527 303.821 255.917 303.821C254.306 303.821 253 302.798 253 301.537C253 300.275 254.306 299.253 255.917 299.253C257.527 299.253 258.833 300.275 258.833 301.537Z" fill="#F57F78"/>
<path d="M27.9998 231.705C27.9998 232.967 26.694 233.99 25.0832 233.99C23.4723 233.99 22.1665 232.967 22.1665 231.705C22.1665 230.444 23.4723 229.421 25.0832 229.421C26.694 229.421 27.9998 230.444 27.9998 231.705Z" fill="#F57F78"/>
<path d="M590.5 165.789C590.5 167.051 589.194 168.074 587.583 168.074C585.972 168.074 584.667 167.051 584.667 165.789C584.667 164.528 585.972 163.505 587.583 163.505C589.194 163.505 590.5 164.528 590.5 165.789Z" fill="#F57F78"/>
<path d="M424.667 285.221C424.667 286.483 423.361 287.505 421.75 287.505C420.139 287.505 418.833 286.483 418.833 285.221C418.833 283.96 420.139 282.937 421.75 282.937C423.361 282.937 424.667 283.96 424.667 285.221Z" fill="#F57F78"/>
<path d="M455.5 154.042C455.5 155.304 454.194 156.326 452.583 156.326C450.972 156.326 449.667 155.304 449.667 154.042C449.667 152.78 450.972 151.758 452.583 151.758C454.194 151.758 455.5 152.78 455.5 154.042Z" fill="#F57F78"/>
<path d="M258.833 253.242C258.833 254.504 257.527 255.526 255.917 255.526C254.306 255.526 253 254.504 253 253.242C253 251.981 254.306 250.958 255.917 250.958C257.527 250.958 258.833 251.981 258.833 253.242Z" fill="#F57F78"/>
<path d="M132.167 130.547C132.167 131.809 130.861 132.832 129.25 132.832C127.639 132.832 126.333 131.809 126.333 130.547C126.333 129.286 127.639 128.263 129.25 128.263C130.861 128.263 132.167 129.286 132.167 130.547Z" fill="#F57F78"/>
<defs>
<filter id="filter0_d" x="0.16196" y="88.6929" width="1006.25" height="271.197" filterUnits="userSpaceOnUse" color-interpolation-filters="sRGB">
<feFlood flood-opacity="0" result="BackgroundImageFix"/>
<feColorMatrix in="SourceAlpha" type="matrix" values="0 0 0 0 0 0 0 0 0 0 0 0 0 0 0 0 0 0 127 0"/>
<feOffset dy="3.26333"/>
<feGaussianBlur stdDeviation="1.63167"/>
<feColorMatrix type="matrix" values="0 0 0 0 0.345226 0 0 0 0 0.854167 0 0 0 0 0.82363 0 0 0 0.25 0"/>
<feBlend mode="normal" in2="BackgroundImageFix" result="effect1_dropShadow"/>
<feBlend mode="normal" in="SourceGraphic" in2="effect1_dropShadow" result="shape"/>
</filter>
</defs>
</svg>
